<svg width="98" height="116" viewBox="0 0 98 116" fill="none" xmlns="http://www.w3.org/2000/svg">
<path d="M34.7135 4.33167C34.2178 3.50551 33.325 3 32.3615 3H5.8446C3.71259 3 2.39571 5.32586 3.49262 7.15405L33.1155 56.5255C33.6112 57.3516 34.504 57.8571 35.4675 57.8571H61.9844C64.1164 57.8571 65.4332 55.5313 64.3363 53.7031L34.7135 4.33167Z" fill="#C52229"/>
<path fill-rule="evenodd" clip-rule="evenodd" d="M32.3615 0.257324H5.84457C1.58056 0.257324 -1.05321 4.90905 1.14061 8.56542L30.7635 57.9368C31.7549 59.5892 33.5405 60.6002 35.4674 60.6002H61.9843C66.2483 60.6002 68.8821 55.9485 66.6883 52.2921L37.0654 2.92066C36.074 1.26834 34.2884 0.257324 32.3615 0.257324ZM32.3615 3.00018C33.3249 3.00018 34.2178 3.50569 34.7135 4.33185L64.3363 53.7033C65.4332 55.5315 64.1163 57.8573 61.9843 57.8573H35.4674C34.504 57.8573 33.6111 57.3518 33.1154 56.5257L3.49259 7.15423C2.39568 5.32605 3.71256 3.00018 5.84457 3.00018H32.3615Z" fill="#9B0F15"/>
<path d="M63.2875 4.33167C63.7832 3.50551 64.676 3 65.6395 3H92.1564C94.2884 3 95.6053 5.32586 94.5084 7.15405L64.8855 56.5255C64.3898 57.3516 63.497 57.8571 62.5335 57.8571H36.0166C33.8846 57.8571 32.5677 55.5313 33.6646 53.7031L63.2875 4.33167Z" fill="#F1333B"/>
<path fill-rule="evenodd" clip-rule="evenodd" d="M65.6395 0.257324H92.1564C96.4204 0.257324 99.0542 4.90905 96.8604 8.56542L67.2375 57.9368C66.2461 59.5892 64.4605 60.6002 62.5335 60.6002H36.0166C31.7526 60.6002 29.1189 55.9485 31.3127 52.2921L60.9355 2.92066C61.9269 1.26834 63.7126 0.257324 65.6395 0.257324ZM65.6395 3.00018C64.676 3.00018 63.7832 3.50569 63.2875 4.33185L33.6647 53.7033C32.5678 55.5315 33.8846 57.8573 36.0166 57.8573H62.5335C63.497 57.8573 64.3898 57.3518 64.8855 56.5257L94.5084 7.15423C95.6053 5.32605 94.2884 3.00018 92.1564 3.00018H65.6395Z" fill="#9B0F15"/>
<path fill-rule="evenodd" clip-rule="evenodd" d="M66.1453 4.55675C66.8003 4.93708 67.023 5.77638 66.6427 6.43139L54.2998 27.6885C53.9195 28.3435 53.0802 28.5662 52.4252 28.1859C51.7702 27.8056 51.5475 26.9663 51.9278 26.3112L64.2707 5.05411C64.651 4.3991 65.4903 4.17642 66.1453 4.55675Z" fill="#FE666D"/>
<path fill-rule="evenodd" clip-rule="evenodd" d="M5.79704 4.55675C5.14203 4.93708 4.91936 5.77638 5.29969 6.43139L17.6425 27.6885C18.0229 28.3435 18.8622 28.5662 19.5172 28.1859C20.1722 27.8056 20.3949 26.9663 20.0145 26.3112L7.67168 5.05411C7.29135 4.3991 6.45205 4.17642 5.79704 4.55675Z" fill="#DF3840"/>
<path d="M31.8573 7.50031C31.8573 8.47075 31.0898 9.25745 30.143 9.25745C29.1962 9.25745 28.4287 8.47075 28.4287 7.50031C28.4287 6.52986 29.1962 5.74316 30.143 5.74316C31.0898 5.74316 31.8573 6.52986 31.8573 7.50031Z" fill="#AA161D"/>
<path d="M25.8361 7.92888C25.8361 9.13601 24.8814 10.1146 23.7037 10.1146C22.526 10.1146 21.5713 9.13601 21.5713 7.92888C21.5713 6.72174 22.526 5.74316 23.7037 5.74316C24.8814 5.74316 25.8361 6.72174 25.8361 7.92888Z" fill="#AA161D"/>
<path d="M31.172 14.1857C31.172 15.3929 30.2173 16.3714 29.0396 16.3714C27.8619 16.3714 26.9072 15.3929 26.9072 14.1857C26.9072 12.9786 27.8619 12 29.0396 12C30.2173 12 31.172 12.9786 31.172 14.1857Z" fill="#AA161D"/>
<path d="M36.0465 11.2071C36.0465 11.8107 35.5691 12.3 34.9803 12.3C34.3914 12.3 33.9141 11.8107 33.9141 11.2071C33.9141 10.6035 34.3914 10.1143 34.9803 10.1143C35.5691 10.1143 36.0465 10.6035 36.0465 11.2071Z" fill="#AA161D"/>
<path d="M24.7701 13.0929C24.7701 13.6964 24.2927 14.1857 23.7039 14.1857C23.1151 14.1857 22.6377 13.6964 22.6377 13.0929C22.6377 12.4893 23.1151 12 23.7039 12C24.2927 12 24.7701 12.4893 24.7701 13.0929Z" fill="#AA161D"/>
<path d="M18.8287 6.40731C18.8287 7.01088 18.3513 7.50017 17.7625 7.50017C17.1736 7.50017 16.6963 7.01088 16.6963 6.40731C16.6963 5.80374 17.1736 5.31445 17.7625 5.31445C18.3513 5.31445 18.8287 5.80374 18.8287 6.40731Z" fill="#AA161D"/>
<path d="M34.981 18.836C34.981 19.4396 34.5037 19.9289 33.9148 19.9289C33.326 19.9289 32.8486 19.4396 32.8486 18.836C32.8486 18.2325 33.326 17.7432 33.9148 17.7432C34.5037 17.7432 34.981 18.2325 34.981 18.836Z" fill="#AA161D"/>
<path d="M29.4947 19.9288C29.4947 20.5324 29.0174 21.0217 28.4285 21.0217C27.8397 21.0217 27.3623 20.5324 27.3623 19.9288C27.3623 19.3252 27.8397 18.8359 28.4285 18.8359C29.0174 18.8359 29.4947 19.3252 29.4947 19.9288Z" fill="#AA161D"/>
<path d="M40.1276 15.9646C40.1276 16.9469 39.3507 17.7432 38.3924 17.7432C37.4341 17.7432 36.6572 16.9469 36.6572 15.9646C36.6572 14.9823 37.4341 14.186 38.3924 14.186C39.3507 14.186 40.1276 14.9823 40.1276 15.9646Z" fill="#AA161D"/>
<path d="M42.3892 21.0216C42.3892 21.6251 41.9119 22.1144 41.323 22.1144C40.7342 22.1144 40.2568 21.6251 40.2568 21.0216C40.2568 20.418 40.7342 19.9287 41.323 19.9287C41.9119 19.9287 42.3892 20.418 42.3892 21.0216Z" fill="#AA161D"/>
<path d="M86.0288 75.6853C86.0288 96.1356 69.4506 112.714 49.0003 112.714C28.5499 112.714 11.9717 96.1356 11.9717 75.6853C11.9717 55.235 28.5499 38.6567 49.0003 38.6567C69.4506 38.6567 86.0288 55.235 86.0288 75.6853Z" fill="#FFBB0D"/>
<path fill-rule="evenodd" clip-rule="evenodd" d="M88.7714 75.6855C88.7714 97.6506 70.9651 115.457 48.9999 115.457C27.0348 115.457 9.22852 97.6506 9.22852 75.6855C9.22852 53.7203 27.0348 35.9141 48.9999 35.9141C70.9651 35.9141 88.7714 53.7203 88.7714 75.6855ZM48.9999 112.714C69.4503 112.714 86.0285 96.1358 86.0285 75.6855C86.0285 55.2352 69.4503 38.6569 48.9999 38.6569C28.5496 38.6569 11.9714 55.2352 11.9714 75.6855C11.9714 96.1358 28.5496 112.714 48.9999 112.714Z" fill="#E89B05"/>
<path fill-rule="evenodd" clip-rule="evenodd" d="M14.714 77.0571C13.9565 77.0571 13.3425 76.4431 13.3425 75.6857C13.3425 55.9928 29.3068 40.0286 48.9997 40.0286C49.7571 40.0286 50.3711 40.6426 50.3711 41.4C50.3711 42.1574 49.7571 42.7714 48.9997 42.7714C30.8216 42.7714 16.0854 57.5076 16.0854 75.6857C16.0854 76.4431 15.4714 77.0571 14.714 77.0571Z" fill="#E8AA0A"/>
<path fill-rule="evenodd" clip-rule="evenodd" d="M83.286 74.314C84.0435 74.314 84.6575 74.928 84.6575 75.6854C84.6575 95.3783 68.6932 111.343 49.0003 111.343C48.2429 111.343 47.6289 110.729 47.6289 109.971C47.6289 109.214 48.2429 108.6 49.0003 108.6C67.1784 108.6 81.9146 93.8635 81.9146 75.6854C81.9146 74.928 82.5286 74.314 83.286 74.314Z" fill="#E8AA0A"/>
<path d="M76.4284 75.6854C76.4284 90.8338 64.1483 103.114 48.9999 103.114C33.8515 103.114 21.5713 90.8338 21.5713 75.6854C21.5713 60.537 33.8515 48.2568 48.9999 48.2568C64.1483 48.2568 76.4284 60.537 76.4284 75.6854Z" fill="#FFDD28"/>
<path fill-rule="evenodd" clip-rule="evenodd" d="M79.171 75.6856C79.171 92.3488 65.6628 105.857 48.9996 105.857C32.3363 105.857 18.8281 92.3488 18.8281 75.6856C18.8281 59.0224 32.3363 45.5142 48.9996 45.5142C65.6628 45.5142 79.171 59.0224 79.171 75.6856ZM48.9996 103.114C64.1479 103.114 76.4281 90.834 76.4281 75.6856C76.4281 60.5372 64.1479 48.257 48.9996 48.257C33.8512 48.257 21.571 60.5372 21.571 75.6856C21.571 90.834 33.8512 103.114 48.9996 103.114Z" fill="#E89B05"/>
<path fill-rule="evenodd" clip-rule="evenodd" d="M48.9995 98.9998C61.8756 98.9998 72.3138 88.5617 72.3138 75.6855C72.3138 74.9281 72.9278 74.3141 73.6852 74.3141C74.4426 74.3141 75.0566 74.9281 75.0566 75.6855C75.0566 90.0765 63.3905 101.743 48.9995 101.743C48.2421 101.743 47.6281 101.129 47.6281 100.371C47.6281 99.6138 48.2421 98.9998 48.9995 98.9998Z" fill="#ECC704"/>
<path fill-rule="evenodd" clip-rule="evenodd" d="M48.9995 52.3713C36.1234 52.3713 25.6852 62.8094 25.6852 75.6856C25.6852 76.443 25.0712 77.057 24.3138 77.057C23.5564 77.057 22.9424 76.443 22.9424 75.6856C22.9424 61.2946 34.6086 49.6284 48.9995 49.6284C49.7569 49.6284 50.371 50.2424 50.371 50.9998C50.371 51.7573 49.7569 52.3713 48.9995 52.3713Z" fill="#FFEF9C"/>
<path d="M52.2742 86.6572H47.6296V68.7537L42.085 70.4733V66.6965L51.776 63.2251H52.2742V86.6572Z" fill="#FFEF9C"/>
<path fill-rule="evenodd" clip-rule="evenodd" d="M55.0168 86.6574C55.0168 88.1723 53.7888 89.4003 52.2739 89.4003H47.6293C46.1145 89.4003 44.8864 88.1723 44.8864 86.6574V72.4763L42.8972 73.0932C42.0648 73.3514 41.1592 73.1986 40.4576 72.6816C39.756 72.1647 39.3418 71.345 39.3418 70.4735V66.6967C39.3418 65.5385 40.0693 64.5051 41.1597 64.1145L50.8508 60.6431C51.1476 60.5368 51.4605 60.4824 51.7757 60.4824H52.2739C53.7888 60.4824 55.0168 61.7104 55.0168 63.2253V86.6574ZM47.6293 68.7539V86.6574H52.2739V63.2253H51.7757L42.0847 66.6967V70.4735L47.6293 68.7539Z" fill="#E89B05"/>
</svg>
